Simulation
nRows=20
nColumns=15
endheader
time  TH_x TH_y TH_z SC_y  SC_z  SC_x  AC_y  AC_z  AC_x  GH_y  GH_z  GH_yy  EL_x  PS_y
0.0  0.000000  0.000000  0.000000  -40.97484877243665  6.293857566463187  5.290427962726946  44.22009060695524  3.6043980289942037  -1.1153820624937183  154.38908834179549  3.8807274406378323  -128.60720981891492  22.633153274001856  120.000000
0.0383  0.000000  0.000000  0.000000  -41.11085940940416  6.755800703687556  5.090080304162502  43.988071794976285  3.778563041271559  -0.7721338408995279  152.8813852837826  2.6155443249807875  -127.09906287592088  22.22550847499829  120.000000
0.0766  0.000000  0.000000  0.000000  -41.24682482833925  7.039518630834473  4.910004180644727  43.8372287361828  3.788719897930668  -0.47104624808862494  148.98249277742204  1.455965103534974  -123.20740002527441  21.875845777891232  120.000000
0.1149  0.000000  0.000000  0.000000  -41.38910555208633  7.188184829802417  4.752038102621851  43.82381502909819  3.649883315878345  -0.20127589490004966  124.14321239778057  0.4364769561894476  -98.40796791006254  21.62619544548517  120.000000
0.1532  0.000000  0.000000  0.000000  -41.56696320956525  7.231756811039401  4.619068797296195  43.97283374954405  3.395658666497291  0.05353826138414465  0.9434123151429961  0.7213647198673272  24.689744941044026  21.497477109654223  120.000000
0.1915  0.000000  0.000000  0.000000  -41.80389867888521  7.198222711903229  4.52108448192361  44.27442020223263  3.0606859603675782  0.3190428722009885  -10.660004604566524  1.7294056604372605  36.10470647536646  21.493652773373814  120.000000
0.2298  0.000000  0.000000  0.000000  -42.1086323259023  7.107668791730561  4.4635237246190815  44.70773158363043  2.6829381194696706  0.6137573139053816  -13.392498815999762  2.8150042156571  38.54516499069027  21.604002223198048  120.000000
0.2681  0.000000  0.000000  0.000000  -42.476585561878494  6.982936105999972  4.444851249101518  45.24657863315214  2.300416668878311  0.9462426673321459  -14.364561818150879  4.002024732577774  39.1111020178718  21.806069994023947  120.000000
0.3064  0.000000  0.000000  0.000000  -42.89836823729304  6.847091511038923  4.464954910797817  45.85840804193418  1.94888806800403  1.3140247724627423  -14.628501585287864  5.314838547062916  38.8510392704128  22.07159373455803  120.000000
0.3447  0.000000  0.000000  0.000000  -43.36375809187826  6.7214138329084445  4.525973953132314  46.50642817740571  1.6597987748710674  1.706185733701104  -14.487419474549995  6.765054399257285  38.068197644672  22.367317547692156  120.000000
0.383  0.000000  0.000000  0.000000  -43.862163666373135  6.626679356537477  4.637633237618874  47.1541740173283  1.4546026579233657  2.1019488529028485  -14.067912013630064  8.350847003828786  36.89379247151833  22.660820094316048  120.000000
0.4213  0.000000  0.000000  0.000000  -44.38398085527701  6.581952156575151  4.811854637483744  47.76623803049617  1.346584879954967  2.47832780167457  -13.447018429452728  10.05909171403018  35.41267222711377  22.922671794609812  120.000000
0.4596  0.000000  0.000000  0.000000  -44.9191144341911  6.6031738431575375  5.060047263874005  48.31239666203785  1.341200092431175  2.814062566054856  -12.682258982723209  11.869459210319956  33.693502361623686  23.12977538498364  120.000000
0.4979  0.000000  0.000000  0.000000  -45.456975647863686  6.7007850243444755  5.390739771265174  48.76911901979514  1.4373551106749416  3.094357722006051  -11.822799041123522  13.758299545841883  31.79876602022692  23.266327484023588  120.000000
0.5362  0.000000  0.000000  0.000000  -45.98756476671158  6.878140019284832  5.805527474938195  49.122775632764885  1.6299895511603053  3.3144405362508778  -10.910016941707891  15.702460791742979  29.78458292742053  23.324728317337296  120.000000
0.5745  0.000000  0.000000  0.000000  -46.50257963142403  7.13182820641098  6.300095766644422  49.37066769779122  1.9101576512936322  3.47877816843619  -9.976857851845487  17.680480717702846  27.6984126872323  23.30434664540686  120.000000
0.6128  0.000000  0.000000  0.000000  -46.997811714869115  7.45207166711766  6.862979528681078  49.520066725244476  2.2684332845818296  3.6023868597210464  -9.047513438081195  19.673157740731035  25.577470576811653  23.209559885158015  120.000000
0.6511  0.000000  0.000000  0.000000  -47.47277918177016  7.826563372322144  7.485422046784784  49.5876806218217  2.6897357244125892  3.702075846652354  -8.135893401479663  21.662178155807947  23.44611197204168  23.04768651535627  120.000000
0.6894  0.000000  0.000000  0.000000  -47.932595529764306  8.242243564752695  8.161830448946574  49.59546929973172  3.156074085370853  3.7963360209422903  -7.246561513519542  23.629608082717198  21.316434787719736  22.827630018965046  120.000000
0.7277  0.000000  0.000000  0.000000  -48.386074708914  8.688825405244835  8.88920716776319  49.56782967834032  3.649577124949754  3.9033588668483836  -6.376873902650261  25.556778565794005  19.190373904403778  22.559014250583292  120.000000
